<svg width="108" height="15" viewBox="0 0 108 15" fill="current" xmlns="http://www.w3.org/2000/svg">
<path fill-rule="evenodd" clip-rule="evenodd" d="M69.901 0.00390625H56.9458V1.28796L69.901 1.3028V0.00390625Z" fill="current"/>
<path fill-rule="evenodd" clip-rule="evenodd" d="M58.2395 6.4843V0.00390625H56.9606L56.9458 6.4843H58.2395Z" fill="current"/>
<path fill-rule="evenodd" clip-rule="evenodd" d="M69.901 12.9927H56.9458V14.2767L69.901 14.2915V12.9927Z" fill="current"/>
<path fill-rule="evenodd" clip-rule="evenodd" d="M68.6068 7.79743H59.52V6.51338L68.6068 6.49854V7.79743Z" fill="current"/>
<path fill-rule="evenodd" clip-rule="evenodd" d="M58.2395 7.81104V14.2915H56.9606L56.9458 7.81104H58.2395Z" fill="current"/>
<path fill-rule="evenodd" clip-rule="evenodd" d="M29.805 6.4843V0.00390625H28.526L28.5112 6.4843H29.805Z" fill="current"/>
<path fill-rule="evenodd" clip-rule="evenodd" d="M29.805 7.81104V14.2915H28.526L28.5112 7.81104H29.805Z" fill="current"/>
<path fill-rule="evenodd" clip-rule="evenodd" d="M28.488 0.00390625H37.5883V1.28796L28.488 1.3028V0.00390625Z" fill="current"/>
<path fill-rule="evenodd" clip-rule="evenodd" d="M28.488 12.9927H37.5928V14.2767L28.488 14.2915V12.9927Z" fill="current"/>
<path fill-rule="evenodd" clip-rule="evenodd" d="M28.488 14.2905V7.79725H29.7751L29.7817 14.2905H28.488ZM28.488 6.50342V0.00390625H29.767L29.7737 6.50128L28.488 6.50342Z" fill="current"/>
<path fill-rule="evenodd" clip-rule="evenodd" d="M40.1727 4.67151L37.0054 1.28891L37.5836 0.00390625L41.4516 4.21421L40.1727 4.67151Z" fill="current"/>
<path fill-rule="evenodd" clip-rule="evenodd" d="M40.1726 6.4844V4.21436H41.4515L41.4663 6.4844H40.1726Z" fill="current"/>
<path fill-rule="evenodd" clip-rule="evenodd" d="M40.1727 9.61523L37.0054 12.9978L37.5836 14.2828L41.4516 10.0725L40.1727 9.61523Z" fill="current"/>
<path fill-rule="evenodd" clip-rule="evenodd" d="M40.1726 7.80225V10.0723H41.4515L41.4663 7.80225H40.1726Z" fill="current"/>
<path fill-rule="evenodd" clip-rule="evenodd" d="M55.7066 0.00390625H42.7515V1.28796L55.7066 1.3028V0.00390625Z" fill="current"/>
<path fill-rule="evenodd" clip-rule="evenodd" d="M44.0452 6.4843V0.00390625H42.7662L42.7515 6.4843H44.0452Z" fill="current"/>
<path fill-rule="evenodd" clip-rule="evenodd" d="M55.7066 12.9927H42.7515V14.2767L55.7066 14.2915V12.9927Z" fill="current"/>
<path fill-rule="evenodd" clip-rule="evenodd" d="M54.4204 7.79743H45.3257V6.51338L54.4204 6.49854V7.79743Z" fill="current"/>
<path fill-rule="evenodd" clip-rule="evenodd" d="M44.0452 7.81104V14.2915H42.7662L42.7515 7.81104H44.0452Z" fill="current"/>
<path fill-rule="evenodd" clip-rule="evenodd" d="M25.8908 4.67151L22.7234 1.28891L23.3016 0.00390625L27.1696 4.21421L25.8908 4.67151Z" fill="current"/>
<path fill-rule="evenodd" clip-rule="evenodd" d="M25.8909 7.80225V10.0723H27.1697L27.1845 7.80225H25.8909Z" fill="current"/>
<path fill-rule="evenodd" clip-rule="evenodd" d="M25.9019 14.298V7.79736H27.1863L27.1956 14.298H25.9019Z" fill="current"/>
<path fill-rule="evenodd" clip-rule="evenodd" d="M19.4353 1.29889H23.2882V0.0148413L19.4353 0V1.29889Z" fill="current"/>
<path fill-rule="evenodd" clip-rule="evenodd" d="M25.8877 6.50079V4.21436H27.1666L27.1703 6.49892L25.8877 6.50079Z" fill="current"/>
<path fill-rule="evenodd" clip-rule="evenodd" d="M15.5199 4.67151L18.6872 1.28891L18.109 0.00390625L14.241 4.21421L15.5199 4.67151Z" fill="current"/>
<path fill-rule="evenodd" clip-rule="evenodd" d="M21.9753 1.29889H18.1223V0.0148413L21.9753 0V1.29889Z" fill="current"/>
<path fill-rule="evenodd" clip-rule="evenodd" d="M15.5229 6.50079V4.21436H14.2439L14.2402 6.49892L15.5229 6.50079Z" fill="current"/>
<path fill-rule="evenodd" clip-rule="evenodd" d="M24.4948 7.78229H17.0081V6.49824L24.4948 6.4834V7.78229Z" fill="current"/>
<path fill-rule="evenodd" clip-rule="evenodd" d="M15.5339 14.2977V7.78223H14.2495L14.2402 14.2977H15.5339Z" fill="current"/>
<path fill-rule="evenodd" clip-rule="evenodd" d="M1.3048 9.62646L4.47212 13.009L3.89394 14.294L0.0258789 10.0837L1.3048 9.62646Z" fill="current"/>
<path fill-rule="evenodd" clip-rule="evenodd" d="M1.30494 6.49563V4.22559H0.0260126L0.0112305 6.49563H1.30494Z" fill="current"/>
<path fill-rule="evenodd" clip-rule="evenodd" d="M1.29371 0V6.50065H0.00925016L0 0H1.29371Z" fill="current"/>
<path fill-rule="evenodd" clip-rule="evenodd" d="M7.76034 12.999H3.90747V14.2831L7.76034 14.2979V12.999Z" fill="current"/>
<path fill-rule="evenodd" clip-rule="evenodd" d="M1.30803 7.79736V10.0838H0.0291088L0.0253906 7.79923L1.30803 7.79736Z" fill="current"/>
<path fill-rule="evenodd" clip-rule="evenodd" d="M11.6756 9.62646L8.5083 13.009L9.08648 14.294L12.9545 10.0837L11.6756 9.62646Z" fill="current"/>
<path fill-rule="evenodd" clip-rule="evenodd" d="M5.22021 12.999H9.07309V14.2831L5.22021 14.2979V12.999Z" fill="current"/>
<path fill-rule="evenodd" clip-rule="evenodd" d="M11.6726 7.79736V10.0838H12.9515L12.9553 7.79923L11.6726 7.79736Z" fill="current"/>
<path fill-rule="evenodd" clip-rule="evenodd" d="M11.6616 0V6.51549H12.9461L12.9553 0H11.6616Z" fill="current"/>
<path fill-rule="evenodd" clip-rule="evenodd" d="M72.4684 7.79743H71.1833V6.51338L72.4684 6.49854V7.79743Z" fill="current"/>
<path fill-rule="evenodd" clip-rule="evenodd" d="M86.6511 0.00390625V10.3991H85.3722L85.3574 0.00390625H86.6511Z" fill="current"/>
<path fill-rule="evenodd" clip-rule="evenodd" d="M82.002 12.993L85.3711 9.81299L86.651 10.3934L82.4574 14.277L82.002 12.993Z" fill="current"/>
<path fill-rule="evenodd" clip-rule="evenodd" d="M76.2886 0.00390625H86.0084V1.28796L76.2917 1.29469L76.2886 0.00390625Z" fill="current"/>
<path fill-rule="evenodd" clip-rule="evenodd" d="M74.6025 12.9927H82.4576V14.2767L74.6025 14.2916V12.9927Z" fill="current"/>
<path fill-rule="evenodd" clip-rule="evenodd" d="M73.7012 14.2916V6.51074H74.9801L74.9948 14.2916H73.7012Z" fill="current"/>
<path fill-rule="evenodd" clip-rule="evenodd" d="M76.2886 6.51074H84.0637V7.79479L76.2886 7.80963V6.51074Z" fill="current"/>
<path fill-rule="evenodd" clip-rule="evenodd" d="M87.9707 14.2918V7.80559L89.2552 7.80313L89.2644 14.2918H87.9707ZM87.9707 6.51075V3.89648H89.2496L89.2533 6.51075H87.9707Z" fill="current"/>
<path fill-rule="evenodd" clip-rule="evenodd" d="M92.6197 1.3026L89.2506 4.48261L87.9707 3.90212L92.1642 0.0185547L92.6197 1.3026Z" fill="current"/>
<path fill-rule="evenodd" clip-rule="evenodd" d="M100.019 1.3028H92.1641V0.0187476L100.019 0.00390625V1.3028Z" fill="current"/>
<path fill-rule="evenodd" clip-rule="evenodd" d="M108 5.20801H95.9031V6.49201L108 6.5069V5.20801Z" fill="current"/>
<path fill-rule="evenodd" clip-rule="evenodd" d="M102.598 6.49313V0.0126953H101.32L101.305 6.49313H102.598Z" fill="current"/>
<path fill-rule="evenodd" clip-rule="evenodd" d="M102.598 14.3364V7.79736H101.312L101.305 14.3364H102.598Z" fill="current"/>
</svg>
